<svg width="41" height="45" viewBox="0 0 41 45" fill="none" xmlns="http://www.w3.org/2000/svg">
<circle cx="18" cy="27" r="18" fill="url(#paint0_linear_378_29)"/>
<g clip-path="url(#clip0_378_29)">
<path d="M30.102 6.83927C31.3063 7.09994 32.4131 7.75335 33.2807 8.71588C34.1484 9.6784 34.7374 10.9063 34.9723 12.2423M30.102 1.36787C32.6041 1.67624 34.9373 2.91925 36.7185 4.89283C38.4998 6.86641 39.6232 9.45325 39.9043 12.2286M38.6713 23.144V27.2476C38.6727 27.6285 38.6024 28.0056 38.4648 28.3547C38.3272 28.7037 38.1255 29.017 37.8724 29.2746C37.6194 29.5321 37.3207 29.7282 36.9954 29.8502C36.6701 29.9723 36.3254 30.0176 35.9834 29.9833C32.1893 29.5259 28.5447 28.0877 25.3427 25.784C22.3635 23.6839 19.8378 20.8819 17.9447 17.5769C15.8609 14.0085 14.5641 9.94565 14.1594 5.71764C14.1286 5.33938 14.1691 4.95815 14.2784 4.59822C14.3877 4.23829 14.5633 3.90755 14.7941 3.62704C15.0249 3.34654 15.3059 3.12243 15.619 2.96897C15.9322 2.81552 16.2707 2.73608 16.6131 2.73572H20.3121C20.9104 2.72919 21.4905 2.96426 21.9442 3.39712C22.3979 3.82999 22.6943 4.4311 22.778 5.08843C22.9342 6.40165 23.2237 7.69107 23.6411 8.93208C23.807 9.42167 23.8429 9.95375 23.7446 10.4653C23.6462 10.9768 23.4178 11.4463 23.0863 11.8182L21.5204 13.5554C23.2756 16.9799 25.8315 19.8153 28.9183 21.7625L30.4842 20.0253C30.8195 19.6576 31.2427 19.4041 31.7038 19.295C32.1649 19.1859 32.6445 19.2258 33.0859 19.4098C34.2045 19.8729 35.3668 20.1941 36.5506 20.3673C37.1495 20.461 37.6965 20.7957 38.0875 21.3077C38.4785 21.8197 38.6863 22.4732 38.6713 23.144Z" stroke="black" stroke-width="1.72781" stroke-linecap="round" stroke-linejoin="round"/>
</g>
<defs>
<linearGradient id="paint0_linear_378_29" x1="5.59459" y1="39.4616" x2="52.2353" y2="20.6628" gradientUnits="userSpaceOnUse">
<stop stop-color="#18A8BC"/>
<stop offset="0.989833" stop-color="#6AE14C"/>
</linearGradient>
<clipPath id="clip0_378_29">
<rect width="29.5713" height="32.8284" fill="white" transform="translate(11 2.28882e-05)"/>
</clipPath>
</defs>
</svg>
