<svg width="40" height="39" viewBox="0 0 40 39" fill="none" xmlns="http://www.w3.org/2000/svg">
<path fill-rule="evenodd" clip-rule="evenodd" d="M16.0276 11.54C16.0276 12.546 15.2616 13.3601 14.0638 13.3601C12.9127 13.3601 12.1468 12.546 12.1705 11.54C12.1468 10.4852 12.9127 9.69482 14.0868 9.69482C15.2616 9.69482 16.0046 10.4852 16.0276 11.54ZM12.2668 26.5151V14.7979H15.9083V26.5143H12.2668V26.5151Z" fill="white"/>
<path fill-rule="evenodd" clip-rule="evenodd" d="M18.8268 18.5374C18.8268 17.0759 18.7786 15.83 18.7305 14.7996H21.8935L22.0616 16.4048H22.1335C22.6128 15.6618 23.8106 14.5366 25.7513 14.5366C28.1469 14.5366 29.944 16.1181 29.944 19.5671V26.5168H26.3025V20.0234C26.3025 18.513 25.7758 17.4833 24.458 17.4833C23.4513 17.4833 22.8528 18.1782 22.6135 18.8485C22.5172 19.0885 22.4698 19.4234 22.4698 19.7597V26.5168H18.8282V18.5374H18.8268Z" fill="white"/>
</svg>
