<svg width="101" height="24" viewBox="0 0 101 24" fill="none" xmlns="http://www.w3.org/2000/svg">
<path d="M2.484 5.382C2.652 5.382 2.826 5.43 3.006 5.526C3.198 5.61 3.342 5.724 3.438 5.868L7.812 12.6L6.912 12.564L11.394 5.868C11.622 5.544 11.916 5.382 12.276 5.382C12.564 5.382 12.822 5.484 13.05 5.688C13.278 5.892 13.392 6.156 13.392 6.48V16.902C13.392 17.214 13.29 17.478 13.086 17.694C12.882 17.898 12.612 18 12.276 18C11.94 18 11.664 17.898 11.448 17.694C11.244 17.478 11.142 17.214 11.142 16.902V8.424L11.844 8.586L8.172 14.184C8.064 14.316 7.926 14.43 7.758 14.526C7.602 14.622 7.44 14.664 7.272 14.652C7.116 14.664 6.954 14.622 6.786 14.526C6.63 14.43 6.498 14.316 6.39 14.184L2.952 8.748L3.42 7.794V16.902C3.42 17.214 3.324 17.478 3.132 17.694C2.94 17.898 2.688 18 2.376 18C2.076 18 1.83 17.898 1.638 17.694C1.446 17.478 1.35 17.214 1.35 16.902V6.48C1.35 6.18 1.458 5.922 1.674 5.706C1.902 5.49 2.172 5.382 2.484 5.382ZM20.094 18.18C19.074 18.18 18.186 17.97 17.43 17.55C16.686 17.118 16.11 16.536 15.702 15.804C15.306 15.072 15.108 14.244 15.108 13.32C15.108 12.24 15.324 11.322 15.756 10.566C16.2 9.798 16.776 9.21 17.484 8.802C18.192 8.394 18.942 8.19 19.734 8.19C20.346 8.19 20.922 8.316 21.462 8.568C22.014 8.82 22.5 9.168 22.92 9.612C23.34 10.044 23.67 10.548 23.91 11.124C24.162 11.7 24.288 12.312 24.288 12.96C24.276 13.248 24.162 13.482 23.946 13.662C23.73 13.842 23.478 13.932 23.19 13.932H16.314L15.774 12.132H22.38L21.984 12.492V12.006C21.96 11.658 21.834 11.346 21.606 11.07C21.39 10.794 21.114 10.578 20.778 10.422C20.454 10.254 20.106 10.17 19.734 10.17C19.374 10.17 19.038 10.218 18.726 10.314C18.414 10.41 18.144 10.572 17.916 10.8C17.688 11.028 17.508 11.334 17.376 11.718C17.244 12.102 17.178 12.588 17.178 13.176C17.178 13.824 17.31 14.376 17.574 14.832C17.85 15.276 18.198 15.618 18.618 15.858C19.05 16.086 19.506 16.2 19.986 16.2C20.43 16.2 20.784 16.164 21.048 16.092C21.312 16.02 21.522 15.936 21.678 15.84C21.846 15.732 21.996 15.642 22.128 15.57C22.344 15.462 22.548 15.408 22.74 15.408C23.004 15.408 23.22 15.498 23.388 15.678C23.568 15.858 23.658 16.068 23.658 16.308C23.658 16.632 23.49 16.926 23.154 17.19C22.842 17.454 22.404 17.688 21.84 17.892C21.276 18.084 20.694 18.18 20.094 18.18ZM34.8152 6.012C35.1272 6.168 35.3072 6.414 35.3552 6.75C35.4152 7.086 35.3312 7.392 35.1032 7.668C34.9472 7.884 34.7432 8.004 34.4912 8.028C34.2512 8.052 34.0052 8.004 33.7532 7.884C33.4652 7.752 33.1592 7.65 32.8352 7.578C32.5232 7.506 32.1932 7.47 31.8452 7.47C31.1972 7.47 30.6152 7.572 30.0992 7.776C29.5952 7.98 29.1632 8.274 28.8032 8.658C28.4432 9.03 28.1672 9.474 27.9752 9.99C27.7952 10.506 27.7052 11.076 27.7052 11.7C27.7052 12.432 27.8072 13.068 28.0112 13.608C28.2272 14.148 28.5212 14.598 28.8932 14.958C29.2652 15.318 29.7032 15.588 30.2072 15.768C30.7112 15.936 31.2572 16.02 31.8452 16.02C32.1692 16.02 32.4932 15.99 32.8172 15.93C33.1412 15.87 33.4532 15.762 33.7532 15.606C34.0052 15.486 34.2512 15.444 34.4912 15.48C34.7432 15.516 34.9532 15.642 35.1212 15.858C35.3612 16.158 35.4452 16.47 35.3732 16.794C35.3132 17.106 35.1332 17.334 34.8332 17.478C34.5212 17.634 34.1972 17.766 33.8612 17.874C33.5372 17.97 33.2072 18.042 32.8712 18.09C32.5352 18.15 32.1932 18.18 31.8452 18.18C30.9812 18.18 30.1592 18.042 29.3792 17.766C28.6112 17.49 27.9212 17.082 27.3092 16.542C26.7092 16.002 26.2352 15.33 25.8872 14.526C25.5392 13.71 25.3652 12.768 25.3652 11.7C25.3652 10.776 25.5212 9.924 25.8332 9.144C26.1572 8.364 26.6072 7.692 27.1832 7.128C27.7712 6.552 28.4612 6.108 29.2532 5.796C30.0452 5.472 30.9092 5.31 31.8452 5.31C32.3732 5.31 32.8892 5.37 33.3932 5.49C33.8972 5.61 34.3712 5.784 34.8152 6.012ZM41.7984 8.19C42.6624 8.19 43.3164 8.376 43.7604 8.748C44.2164 9.12 44.5284 9.618 44.6964 10.242C44.8644 10.854 44.9484 11.538 44.9484 12.294V16.902C44.9484 17.214 44.8464 17.478 44.6424 17.694C44.4384 17.898 44.1804 18 43.8684 18C43.5564 18 43.2984 17.898 43.0944 17.694C42.8904 17.478 42.7884 17.214 42.7884 16.902V12.294C42.7884 11.898 42.7404 11.544 42.6444 11.232C42.5484 10.908 42.3744 10.65 42.1224 10.458C41.8704 10.266 41.5104 10.17 41.0424 10.17C40.5864 10.17 40.1964 10.266 39.8724 10.458C39.5484 10.65 39.3024 10.908 39.1344 11.232C38.9784 11.544 38.9004 11.898 38.9004 12.294V16.902C38.9004 17.214 38.7984 17.478 38.5944 17.694C38.3904 17.898 38.1324 18 37.8204 18C37.5084 18 37.2504 17.898 37.0464 17.694C36.8424 17.478 36.7404 17.214 36.7404 16.902V5.778C36.7404 5.466 36.8424 5.208 37.0464 5.004C37.2504 4.788 37.5084 4.68 37.8204 4.68C38.1324 4.68 38.3904 4.788 38.5944 5.004C38.7984 5.208 38.9004 5.466 38.9004 5.778V10.242L38.6304 10.188C38.7384 9.984 38.8884 9.768 39.0804 9.54C39.2724 9.3 39.5064 9.078 39.7824 8.874C40.0584 8.67 40.3644 8.508 40.7004 8.388C41.0364 8.256 41.4024 8.19 41.7984 8.19ZM54.8113 8.19C55.1233 8.19 55.3813 8.292 55.5853 8.496C55.7893 8.7 55.8913 8.964 55.8913 9.288V16.902C55.8913 17.214 55.7893 17.478 55.5853 17.694C55.3813 17.898 55.1233 18 54.8113 18C54.4993 18 54.2413 17.898 54.0373 17.694C53.8333 17.478 53.7313 17.214 53.7313 16.902V16.02L54.1273 16.182C54.1273 16.338 54.0433 16.53 53.8753 16.758C53.7073 16.974 53.4793 17.19 53.1913 17.406C52.9033 17.622 52.5613 17.808 52.1653 17.964C51.7813 18.108 51.3613 18.18 50.9053 18.18C50.0773 18.18 49.3273 17.97 48.6553 17.55C47.9833 17.118 47.4493 16.53 47.0533 15.786C46.6693 15.03 46.4773 14.166 46.4773 13.194C46.4773 12.21 46.6693 11.346 47.0533 10.602C47.4493 9.846 47.9773 9.258 48.6373 8.838C49.2973 8.406 50.0293 8.19 50.8333 8.19C51.3493 8.19 51.8233 8.268 52.2553 8.424C52.6873 8.58 53.0593 8.778 53.3713 9.018C53.6953 9.258 53.9413 9.504 54.1093 9.756C54.2893 9.996 54.3793 10.2 54.3793 10.368L53.7313 10.602V9.288C53.7313 8.976 53.8333 8.718 54.0373 8.514C54.2413 8.298 54.4993 8.19 54.8113 8.19ZM51.1753 16.2C51.7033 16.2 52.1653 16.068 52.5613 15.804C52.9573 15.54 53.2633 15.18 53.4793 14.724C53.7073 14.268 53.8213 13.758 53.8213 13.194C53.8213 12.618 53.7073 12.102 53.4793 11.646C53.2633 11.19 52.9573 10.83 52.5613 10.566C52.1653 10.302 51.7033 10.17 51.1753 10.17C50.6593 10.17 50.2033 10.302 49.8073 10.566C49.4113 10.83 49.0993 11.19 48.8713 11.646C48.6553 12.102 48.5473 12.618 48.5473 13.194C48.5473 13.758 48.6553 14.268 48.8713 14.724C49.0993 15.18 49.4113 15.54 49.8073 15.804C50.2033 16.068 50.6593 16.2 51.1753 16.2ZM64.8402 8.37C65.1522 8.37 65.4102 8.478 65.6142 8.694C65.8182 8.898 65.9202 9.156 65.9202 9.468V14.04C65.9202 15.312 65.5662 16.32 64.8582 17.064C64.1502 17.808 63.1302 18.18 61.7982 18.18C60.4662 18.18 59.4462 17.808 58.7382 17.064C58.0422 16.32 57.6942 15.312 57.6942 14.04V9.468C57.6942 9.156 57.7962 8.898 58.0002 8.694C58.2042 8.478 58.4622 8.37 58.7742 8.37C59.0862 8.37 59.3442 8.478 59.5482 8.694C59.7522 8.898 59.8542 9.156 59.8542 9.468V14.04C59.8542 14.772 60.0162 15.318 60.3402 15.678C60.6642 16.026 61.1502 16.2 61.7982 16.2C62.4582 16.2 62.9502 16.026 63.2742 15.678C63.5982 15.318 63.7602 14.772 63.7602 14.04V9.468C63.7602 9.156 63.8622 8.898 64.0662 8.694C64.2702 8.478 64.5282 8.37 64.8402 8.37ZM72.8487 4.68C73.1127 4.68 73.3707 4.716 73.6227 4.788C73.8747 4.86 74.0847 4.98 74.2527 5.148C74.4207 5.304 74.5047 5.514 74.5047 5.778C74.5047 6.078 74.4147 6.318 74.2347 6.498C74.0667 6.666 73.8687 6.75 73.6407 6.75C73.5327 6.75 73.3707 6.726 73.1547 6.678C72.9387 6.618 72.7287 6.588 72.5247 6.588C72.2247 6.588 71.9907 6.654 71.8227 6.786C71.6667 6.918 71.5587 7.074 71.4987 7.254C71.4387 7.422 71.4087 7.572 71.4087 7.704V16.902C71.4087 17.214 71.3067 17.478 71.1027 17.694C70.8987 17.898 70.6407 18 70.3287 18C70.0167 18 69.7587 17.898 69.5547 17.694C69.3507 17.478 69.2487 17.214 69.2487 16.902V7.722C69.2487 6.87 69.5487 6.15 70.1487 5.562C70.7487 4.974 71.6487 4.68 72.8487 4.68ZM73.0467 8.55C73.3347 8.55 73.5747 8.646 73.7667 8.838C73.9587 9.018 74.0547 9.252 74.0547 9.54C74.0547 9.828 73.9587 10.068 73.7667 10.26C73.5747 10.44 73.3347 10.53 73.0467 10.53H68.2767C67.9887 10.53 67.7487 10.44 67.5567 10.26C67.3647 10.068 67.2687 9.828 67.2687 9.54C67.2687 9.252 67.3647 9.018 67.5567 8.838C67.7487 8.646 67.9887 8.55 68.2767 8.55H73.0467ZM80.7147 4.68C80.9787 4.68 81.2367 4.716 81.4887 4.788C81.7407 4.86 81.9507 4.98 82.1187 5.148C82.2867 5.304 82.3707 5.514 82.3707 5.778C82.3707 6.078 82.2807 6.318 82.1007 6.498C81.9327 6.666 81.7347 6.75 81.5067 6.75C81.3987 6.75 81.2367 6.726 81.0207 6.678C80.8047 6.618 80.5947 6.588 80.3907 6.588C80.0907 6.588 79.8567 6.654 79.6887 6.786C79.5327 6.918 79.4247 7.074 79.3647 7.254C79.3047 7.422 79.2747 7.572 79.2747 7.704V16.902C79.2747 17.214 79.1727 17.478 78.9687 17.694C78.7647 17.898 78.5067 18 78.1947 18C77.8827 18 77.6247 17.898 77.4207 17.694C77.2167 17.478 77.1147 17.214 77.1147 16.902V7.722C77.1147 6.87 77.4147 6.15 78.0147 5.562C78.6147 4.974 79.5147 4.68 80.7147 4.68ZM80.9127 8.55C81.2007 8.55 81.4407 8.646 81.6327 8.838C81.8247 9.018 81.9207 9.252 81.9207 9.54C81.9207 9.828 81.8247 10.068 81.6327 10.26C81.4407 10.44 81.2007 10.53 80.9127 10.53H76.1427C75.8547 10.53 75.6147 10.44 75.4227 10.26C75.2307 10.068 75.1347 9.828 75.1347 9.54C75.1347 9.252 75.2307 9.018 75.4227 8.838C75.6147 8.646 75.8547 8.55 76.1427 8.55H80.9127ZM87.8071 18.18C86.7871 18.18 85.8991 17.97 85.1431 17.55C84.3991 17.118 83.8231 16.536 83.4151 15.804C83.0191 15.072 82.8211 14.244 82.8211 13.32C82.8211 12.24 83.0371 11.322 83.4691 10.566C83.9131 9.798 84.4891 9.21 85.1971 8.802C85.9051 8.394 86.6551 8.19 87.4471 8.19C88.0591 8.19 88.6351 8.316 89.1751 8.568C89.7271 8.82 90.2131 9.168 90.6331 9.612C91.0531 10.044 91.3831 10.548 91.6231 11.124C91.8751 11.7 92.0011 12.312 92.0011 12.96C91.9891 13.248 91.8751 13.482 91.6591 13.662C91.4431 13.842 91.1911 13.932 90.9031 13.932H84.0271L83.4871 12.132H90.0931L89.6971 12.492V12.006C89.6731 11.658 89.5471 11.346 89.3191 11.07C89.1031 10.794 88.8271 10.578 88.4911 10.422C88.1671 10.254 87.8191 10.17 87.4471 10.17C87.0871 10.17 86.7511 10.218 86.4391 10.314C86.1271 10.41 85.8571 10.572 85.6291 10.8C85.4011 11.028 85.2211 11.334 85.0891 11.718C84.9571 12.102 84.8911 12.588 84.8911 13.176C84.8911 13.824 85.0231 14.376 85.2871 14.832C85.5631 15.276 85.9111 15.618 86.3311 15.858C86.7631 16.086 87.2191 16.2 87.6991 16.2C88.1431 16.2 88.4971 16.164 88.7611 16.092C89.0251 16.02 89.2351 15.936 89.3911 15.84C89.5591 15.732 89.7091 15.642 89.8411 15.57C90.0571 15.462 90.2611 15.408 90.4531 15.408C90.7171 15.408 90.9331 15.498 91.1011 15.678C91.2811 15.858 91.3711 16.068 91.3711 16.308C91.3711 16.632 91.2031 16.926 90.8671 17.19C90.5551 17.454 90.1171 17.688 89.5531 17.892C88.9891 18.084 88.4071 18.18 87.8071 18.18ZM94.6083 18C94.2963 18 94.0383 17.898 93.8343 17.694C93.6303 17.478 93.5283 17.214 93.5283 16.902V9.468C93.5283 9.156 93.6303 8.898 93.8343 8.694C94.0383 8.478 94.2963 8.37 94.6083 8.37C94.9203 8.37 95.1783 8.478 95.3823 8.694C95.5863 8.898 95.6883 9.156 95.6883 9.468V11.16L95.5623 9.954C95.6943 9.666 95.8623 9.414 96.0663 9.198C96.2823 8.97 96.5223 8.784 96.7863 8.64C97.0503 8.484 97.3323 8.37 97.6323 8.298C97.9323 8.226 98.2323 8.19 98.5323 8.19C98.8923 8.19 99.1923 8.292 99.4323 8.496C99.6843 8.7 99.8103 8.94 99.8103 9.216C99.8103 9.612 99.7083 9.9 99.5043 10.08C99.3003 10.248 99.0783 10.332 98.8383 10.332C98.6103 10.332 98.4003 10.29 98.2083 10.206C98.0283 10.122 97.8183 10.08 97.5783 10.08C97.3623 10.08 97.1403 10.134 96.9123 10.242C96.6963 10.338 96.4923 10.494 96.3003 10.71C96.1203 10.926 95.9703 11.196 95.8503 11.52C95.7423 11.832 95.6883 12.204 95.6883 12.636V16.902C95.6883 17.214 95.5863 17.478 95.3823 17.694C95.1783 17.898 94.9203 18 94.6083 18Z" fill="#374957"/>
</svg>
