<svg width="125" height="18" viewBox="0 0 125 18" fill="none" xmlns="http://www.w3.org/2000/svg">
<path d="M2.036 1.578C2.24133 1.578 2.454 1.63667 2.674 1.754C2.90867 1.85667 3.08467 1.996 3.202 2.172L8.548 10.4L7.448 10.356L12.926 2.172C13.2047 1.776 13.564 1.578 14.004 1.578C14.356 1.578 14.6713 1.70267 14.95 1.952C15.2287 2.20133 15.368 2.524 15.368 2.92V15.658C15.368 16.0393 15.2433 16.362 14.994 16.626C14.7447 16.8753 14.4147 17 14.004 17C13.5933 17 13.256 16.8753 12.992 16.626C12.7427 16.362 12.618 16.0393 12.618 15.658V5.296L13.476 5.494L8.988 12.336C8.856 12.4973 8.68733 12.6367 8.482 12.754C8.29133 12.8713 8.09333 12.9227 7.888 12.908C7.69733 12.9227 7.49933 12.8713 7.294 12.754C7.10333 12.6367 6.942 12.4973 6.81 12.336L2.608 5.692L3.18 4.526V15.658C3.18 16.0393 3.06267 16.362 2.828 16.626C2.59333 16.8753 2.28533 17 1.904 17C1.53733 17 1.23667 16.8753 1.002 16.626C0.767333 16.362 0.65 16.0393 0.65 15.658V2.92C0.65 2.55333 0.782 2.238 1.046 1.974C1.32467 1.71 1.65467 1.578 2.036 1.578ZM23.9994 17.22C22.7527 17.22 21.6674 16.9633 20.7434 16.45C19.8341 15.922 19.1301 15.2107 18.6314 14.316C18.1474 13.4213 17.9054 12.4093 17.9054 11.28C17.9054 9.96 18.1694 8.838 18.6974 7.914C19.2401 6.97533 19.9441 6.25667 20.8094 5.758C21.6747 5.25933 22.5914 5.01 23.5594 5.01C24.3074 5.01 25.0114 5.164 25.6714 5.472C26.3461 5.78 26.9401 6.20533 27.4534 6.748C27.9667 7.276 28.3701 7.892 28.6634 8.596C28.9714 9.3 29.1254 10.048 29.1254 10.84C29.1107 11.192 28.9714 11.478 28.7074 11.698C28.4434 11.918 28.1354 12.028 27.7834 12.028H19.3794L18.7194 9.828H26.7934L26.3094 10.268V9.674C26.2801 9.24867 26.1261 8.86733 25.8474 8.53C25.5834 8.19267 25.2461 7.92867 24.8354 7.738C24.4394 7.53267 24.0141 7.43 23.5594 7.43C23.1194 7.43 22.7087 7.48867 22.3274 7.606C21.9461 7.72333 21.6161 7.92133 21.3374 8.2C21.0587 8.47867 20.8387 8.85267 20.6774 9.322C20.5161 9.79133 20.4354 10.3853 20.4354 11.104C20.4354 11.896 20.5967 12.5707 20.9194 13.128C21.2567 13.6707 21.6821 14.0887 22.1954 14.382C22.7234 14.6607 23.2807 14.8 23.8674 14.8C24.4101 14.8 24.8427 14.756 25.1654 14.668C25.4881 14.58 25.7447 14.4773 25.9354 14.36C26.1407 14.228 26.3241 14.118 26.4854 14.03C26.7494 13.898 26.9987 13.832 27.2334 13.832C27.5561 13.832 27.8201 13.942 28.0254 14.162C28.2454 14.382 28.3554 14.6387 28.3554 14.932C28.3554 15.328 28.1501 15.6873 27.7394 16.01C27.3581 16.3327 26.8227 16.6187 26.1334 16.868C25.4441 17.1027 24.7327 17.22 23.9994 17.22ZM42.432 2.348C42.8133 2.53867 43.0333 2.83933 43.092 3.25C43.1653 3.66067 43.0626 4.03467 42.784 4.372C42.5933 4.636 42.344 4.78267 42.036 4.812C41.7426 4.84133 41.442 4.78267 41.134 4.636C40.782 4.47467 40.408 4.35 40.012 4.262C39.6306 4.174 39.2273 4.13 38.802 4.13C38.01 4.13 37.2986 4.25467 36.668 4.504C36.052 4.75333 35.524 5.11267 35.084 5.582C34.644 6.03667 34.3066 6.57933 34.072 7.21C33.852 7.84067 33.742 8.53733 33.742 9.3C33.742 10.1947 33.8666 10.972 34.116 11.632C34.38 12.292 34.7393 12.842 35.194 13.282C35.6486 13.722 36.184 14.052 36.8 14.272C37.416 14.4773 38.0833 14.58 38.802 14.58C39.198 14.58 39.594 14.5433 39.99 14.47C40.386 14.3967 40.7673 14.2647 41.134 14.074C41.442 13.9273 41.7426 13.876 42.036 13.92C42.344 13.964 42.6006 14.118 42.806 14.382C43.0993 14.7487 43.202 15.13 43.114 15.526C43.0406 15.9073 42.8206 16.186 42.454 16.362C42.0726 16.5527 41.6766 16.714 41.266 16.846C40.87 16.9633 40.4666 17.0513 40.056 17.11C39.6453 17.1833 39.2273 17.22 38.802 17.22C37.746 17.22 36.7413 17.0513 35.788 16.714C34.8493 16.3767 34.006 15.878 33.258 15.218C32.5246 14.558 31.9453 13.7367 31.52 12.754C31.0946 11.7567 30.882 10.6053 30.882 9.3C30.882 8.17067 31.0726 7.12933 31.454 6.176C31.85 5.22267 32.4 4.40133 33.104 3.712C33.8226 3.008 34.666 2.46533 35.634 2.084C36.602 1.688 37.658 1.49 38.802 1.49C39.4473 1.49 40.078 1.56333 40.694 1.71C41.31 1.85667 41.8893 2.06933 42.432 2.348ZM51.4069 5.01C52.4629 5.01 53.2623 5.23733 53.8049 5.692C54.3623 6.14667 54.7436 6.75533 54.9489 7.518C55.1543 8.266 55.2569 9.102 55.2569 10.026V15.658C55.2569 16.0393 55.1323 16.362 54.8829 16.626C54.6336 16.8753 54.3183 17 53.9369 17C53.5556 17 53.2403 16.8753 52.9909 16.626C52.7416 16.362 52.6169 16.0393 52.6169 15.658V10.026C52.6169 9.542 52.5583 9.10933 52.4409 8.728C52.3236 8.332 52.1109 8.01667 51.8029 7.782C51.4949 7.54733 51.0549 7.43 50.4829 7.43C49.9256 7.43 49.4489 7.54733 49.0529 7.782C48.6569 8.01667 48.3563 8.332 48.1509 8.728C47.9603 9.10933 47.8649 9.542 47.8649 10.026V15.658C47.8649 16.0393 47.7403 16.362 47.4909 16.626C47.2416 16.8753 46.9263 17 46.5449 17C46.1636 17 45.8483 16.8753 45.5989 16.626C45.3496 16.362 45.2249 16.0393 45.2249 15.658V2.062C45.2249 1.68067 45.3496 1.36533 45.5989 1.116C45.8483 0.851999 46.1636 0.72 46.5449 0.72C46.9263 0.72 47.2416 0.851999 47.4909 1.116C47.7403 1.36533 47.8649 1.68067 47.8649 2.062V7.518L47.5349 7.452C47.6669 7.20267 47.8503 6.93867 48.0849 6.66C48.3196 6.36667 48.6056 6.09533 48.9429 5.846C49.2803 5.59667 49.6543 5.39867 50.0649 5.252C50.4756 5.09067 50.9229 5.01 51.4069 5.01ZM67.7515 5.01C68.1329 5.01 68.4482 5.13467 68.6975 5.384C68.9469 5.63333 69.0715 5.956 69.0715 6.352V15.658C69.0715 16.0393 68.9469 16.362 68.6975 16.626C68.4482 16.8753 68.1329 17 67.7515 17C67.3702 17 67.0549 16.8753 66.8055 16.626C66.5562 16.362 66.4315 16.0393 66.4315 15.658V14.58L66.9155 14.778C66.9155 14.9687 66.8129 15.2033 66.6075 15.482C66.4022 15.746 66.1235 16.01 65.7715 16.274C65.4195 16.538 65.0015 16.7653 64.5175 16.956C64.0482 17.132 63.5349 17.22 62.9775 17.22C61.9655 17.22 61.0489 16.9633 60.2275 16.45C59.4062 15.922 58.7535 15.2033 58.2695 14.294C57.8002 13.37 57.5655 12.314 57.5655 11.126C57.5655 9.92333 57.8002 8.86733 58.2695 7.958C58.7535 7.034 59.3989 6.31533 60.2055 5.802C61.0122 5.274 61.9069 5.01 62.8895 5.01C63.5202 5.01 64.0995 5.10533 64.6275 5.296C65.1555 5.48667 65.6102 5.72867 65.9915 6.022C66.3875 6.31533 66.6882 6.616 66.8935 6.924C67.1135 7.21733 67.2235 7.46667 67.2235 7.672L66.4315 7.958V6.352C66.4315 5.97067 66.5562 5.65533 66.8055 5.406C67.0549 5.142 67.3702 5.01 67.7515 5.01ZM63.3075 14.8C63.9529 14.8 64.5175 14.6387 65.0015 14.316C65.4855 13.9933 65.8595 13.5533 66.1235 12.996C66.4022 12.4387 66.5415 11.8153 66.5415 11.126C66.5415 10.422 66.4022 9.79133 66.1235 9.234C65.8595 8.67667 65.4855 8.23667 65.0015 7.914C64.5175 7.59133 63.9529 7.43 63.3075 7.43C62.6769 7.43 62.1195 7.59133 61.6355 7.914C61.1515 8.23667 60.7702 8.67667 60.4915 9.234C60.2275 9.79133 60.0955 10.422 60.0955 11.126C60.0955 11.8153 60.2275 12.4387 60.4915 12.996C60.7702 13.5533 61.1515 13.9933 61.6355 14.316C62.1195 14.6387 62.6769 14.8 63.3075 14.8ZM80.4492 5.23C80.8305 5.23 81.1458 5.362 81.3952 5.626C81.6445 5.87533 81.7692 6.19067 81.7692 6.572V12.16C81.7692 13.7147 81.3365 14.9467 80.4712 15.856C79.6058 16.7653 78.3592 17.22 76.7312 17.22C75.1032 17.22 73.8565 16.7653 72.9912 15.856C72.1405 14.9467 71.7152 13.7147 71.7152 12.16V6.572C71.7152 6.19067 71.8398 5.87533 72.0892 5.626C72.3385 5.362 72.6538 5.23 73.0352 5.23C73.4165 5.23 73.7318 5.362 73.9812 5.626C74.2305 5.87533 74.3552 6.19067 74.3552 6.572V12.16C74.3552 13.0547 74.5532 13.722 74.9492 14.162C75.3452 14.5873 75.9392 14.8 76.7312 14.8C77.5378 14.8 78.1392 14.5873 78.5352 14.162C78.9312 13.722 79.1292 13.0547 79.1292 12.16V6.572C79.1292 6.19067 79.2538 5.87533 79.5032 5.626C79.7525 5.362 80.0678 5.23 80.4492 5.23ZM90.6773 0.72C90.9999 0.72 91.3153 0.764 91.6233 0.851999C91.9313 0.939999 92.1879 1.08667 92.3933 1.292C92.5986 1.48267 92.7013 1.73933 92.7013 2.062C92.7013 2.42867 92.5913 2.722 92.3713 2.942C92.1659 3.14733 91.9239 3.25 91.6453 3.25C91.5133 3.25 91.3153 3.22067 91.0513 3.162C90.7873 3.08867 90.5306 3.052 90.2813 3.052C89.9146 3.052 89.6286 3.13267 89.4233 3.294C89.2326 3.45533 89.1006 3.646 89.0273 3.866C88.9539 4.07133 88.9173 4.25467 88.9173 4.416V15.658C88.9173 16.0393 88.7926 16.362 88.5433 16.626C88.2939 16.8753 87.9786 17 87.5973 17C87.2159 17 86.9006 16.8753 86.6513 16.626C86.4019 16.362 86.2773 16.0393 86.2773 15.658V4.438C86.2773 3.39667 86.6439 2.51667 87.3773 1.798C88.1106 1.07933 89.2106 0.72 90.6773 0.72ZM90.9193 5.45C91.2713 5.45 91.5646 5.56733 91.7993 5.802C92.0339 6.022 92.1513 6.308 92.1513 6.66C92.1513 7.012 92.0339 7.30533 91.7993 7.54C91.5646 7.76 91.2713 7.87 90.9193 7.87H85.0893C84.7373 7.87 84.4439 7.76 84.2093 7.54C83.9746 7.30533 83.8573 7.012 83.8573 6.66C83.8573 6.308 83.9746 6.022 84.2093 5.802C84.4439 5.56733 84.7373 5.45 85.0893 5.45H90.9193ZM100.291 0.72C100.614 0.72 100.929 0.764 101.237 0.851999C101.545 0.939999 101.802 1.08667 102.007 1.292C102.213 1.48267 102.315 1.73933 102.315 2.062C102.315 2.42867 102.205 2.722 101.985 2.942C101.78 3.14733 101.538 3.25 101.259 3.25C101.127 3.25 100.929 3.22067 100.665 3.162C100.401 3.08867 100.145 3.052 99.8953 3.052C99.5286 3.052 99.2426 3.13267 99.0373 3.294C98.8466 3.45533 98.7146 3.646 98.6413 3.866C98.5679 4.07133 98.5313 4.25467 98.5313 4.416V15.658C98.5313 16.0393 98.4066 16.362 98.1573 16.626C97.9079 16.8753 97.5926 17 97.2113 17C96.8299 17 96.5146 16.8753 96.2653 16.626C96.0159 16.362 95.8913 16.0393 95.8913 15.658V4.438C95.8913 3.39667 96.2579 2.51667 96.9913 1.798C97.7246 1.07933 98.8246 0.72 100.291 0.72ZM100.533 5.45C100.885 5.45 101.179 5.56733 101.413 5.802C101.648 6.022 101.765 6.308 101.765 6.66C101.765 7.012 101.648 7.30533 101.413 7.54C101.179 7.76 100.885 7.87 100.533 7.87H94.7033C94.3513 7.87 94.0579 7.76 93.8233 7.54C93.5886 7.30533 93.4713 7.012 93.4713 6.66C93.4713 6.308 93.5886 6.022 93.8233 5.802C94.0579 5.56733 94.3513 5.45 94.7033 5.45H100.533ZM109.4 17.22C108.153 17.22 107.068 16.9633 106.144 16.45C105.234 15.922 104.53 15.2107 104.032 14.316C103.548 13.4213 103.306 12.4093 103.306 11.28C103.306 9.96 103.57 8.838 104.098 7.914C104.64 6.97533 105.344 6.25667 106.21 5.758C107.075 5.25933 107.992 5.01 108.96 5.01C109.708 5.01 110.412 5.164 111.072 5.472C111.746 5.78 112.34 6.20533 112.854 6.748C113.367 7.276 113.77 7.892 114.064 8.596C114.372 9.3 114.526 10.048 114.526 10.84C114.511 11.192 114.372 11.478 114.108 11.698C113.844 11.918 113.536 12.028 113.184 12.028H104.78L104.12 9.828H112.194L111.71 10.268V9.674C111.68 9.24867 111.526 8.86733 111.248 8.53C110.984 8.19267 110.646 7.92867 110.236 7.738C109.84 7.53267 109.414 7.43 108.96 7.43C108.52 7.43 108.109 7.48867 107.728 7.606C107.346 7.72333 107.016 7.92133 106.738 8.2C106.459 8.47867 106.239 8.85267 106.078 9.322C105.916 9.79133 105.836 10.3853 105.836 11.104C105.836 11.896 105.997 12.5707 106.32 13.128C106.657 13.6707 107.082 14.0887 107.596 14.382C108.124 14.6607 108.681 14.8 109.268 14.8C109.81 14.8 110.243 14.756 110.566 14.668C110.888 14.58 111.145 14.4773 111.336 14.36C111.541 14.228 111.724 14.118 111.886 14.03C112.15 13.898 112.399 13.832 112.634 13.832C112.956 13.832 113.22 13.942 113.426 14.162C113.646 14.382 113.756 14.6387 113.756 14.932C113.756 15.328 113.55 15.6873 113.14 16.01C112.758 16.3327 112.223 16.6187 111.534 16.868C110.844 17.1027 110.133 17.22 109.4 17.22ZM118.152 17C117.771 17 117.456 16.8753 117.206 16.626C116.957 16.362 116.832 16.0393 116.832 15.658V6.572C116.832 6.19067 116.957 5.87533 117.206 5.626C117.456 5.362 117.771 5.23 118.152 5.23C118.534 5.23 118.849 5.362 119.098 5.626C119.348 5.87533 119.472 6.19067 119.472 6.572V8.64L119.318 7.166C119.48 6.814 119.685 6.506 119.934 6.242C120.198 5.96333 120.492 5.736 120.814 5.56C121.137 5.36933 121.482 5.23 121.848 5.142C122.215 5.054 122.582 5.01 122.948 5.01C123.388 5.01 123.755 5.13467 124.048 5.384C124.356 5.63333 124.51 5.92667 124.51 6.264C124.51 6.748 124.386 7.1 124.136 7.32C123.887 7.52533 123.616 7.628 123.322 7.628C123.044 7.628 122.787 7.57667 122.552 7.474C122.332 7.37133 122.076 7.32 121.782 7.32C121.518 7.32 121.247 7.386 120.968 7.518C120.704 7.63533 120.455 7.826 120.22 8.09C120 8.354 119.817 8.684 119.67 9.08C119.538 9.46133 119.472 9.916 119.472 10.444V15.658C119.472 16.0393 119.348 16.362 119.098 16.626C118.849 16.8753 118.534 17 118.152 17Z" fill="white"/>
</svg>
