<svg width="39" height="39" viewBox="0 0 39 39" fill="none" xmlns="http://www.w3.org/2000/svg">
<path fill-rule="evenodd" clip-rule="evenodd" d="M29.0856 13.1759C28.3727 13.4926 27.6055 13.7059 26.8009 13.8022C27.6223 13.3097 28.2531 12.5303 28.5498 11.6016C27.782 12.0578 26.9295 12.3881 26.024 12.5671C25.2982 11.7942 24.2635 11.3107 23.1202 11.3107C20.9235 11.3107 19.1423 13.0919 19.1423 15.2887C19.1423 15.6002 19.1778 15.904 19.2457 16.1955C15.9392 16.03 13.0082 14.4459 11.0461 12.0391C10.7035 12.6266 10.5077 13.3097 10.5077 14.0388C10.5077 15.4186 11.2089 16.6362 12.2773 17.3497C11.6245 17.3291 11.0118 17.15 10.4747 16.8521V16.9019C10.4747 18.8298 11.8468 20.4371 13.6655 20.8036C13.332 20.894 12.9804 20.9432 12.6179 20.9432C12.3613 20.9432 12.1118 20.918 11.8688 20.8714C12.3749 22.4516 13.8445 23.602 15.585 23.6343C14.2239 24.7007 12.5086 25.3373 10.6447 25.3373C10.3229 25.3373 10.0062 25.3186 9.69531 25.2811C11.4558 26.4095 13.5466 27.0688 15.7931 27.0688C23.1099 27.0688 27.1111 21.0071 27.1111 15.7508C27.1111 15.5782 27.1079 15.4063 27.0995 15.2363C27.8776 14.6741 28.5524 13.9735 29.0856 13.1759Z" fill="white"/>
</svg>
